<svg xmlns="http://www.w3.org/2000/svg"
 width="149.000000pt" height="571.000000pt" viewBox="0 0 149.000000 571.000000"
 preserveAspectRatio="xMidYMid meet">
<g transform="translate(0.000000,571.000000) scale(0.100000,-0.100000)"
fill="#f7cccc" stroke="none">
<path d="M635 5308 c-54 -43 -54 -38 -48 -626 l6 -542 -67 0 c-58 0 -70 -3
-91 -25 -14 -13 -25 -35 -25 -48 0 -37 128 -397 155 -437 l24 -35 3 -1595 c3
-1503 4 -1597 21 -1623 50 -76 167 -73 209 7 7 12 10 560 9 1622 -1 929 2
1604 7 1604 15 0 56 86 127 266 74 188 77 212 25 239 -17 9 -55 15 -95 15
l-65 0 -1 308 c0 169 -2 393 -4 497 -2 105 -4 221 -4 259 -1 64 -3 70 -35 102
-29 29 -41 34 -79 34 -30 0 -53 -7 -72 -22z"/>
</g>
</svg>