<svg xmlns="http://www.w3.org/2000/svg"
 width="477.000000pt" height="601.000000pt" viewBox="0 0 477.000000 601.000000"
 preserveAspectRatio="xMidYMid meet">
<g transform="translate(0.000000,601.000000) scale(0.100000,-0.100000)"
fill="#ffffff" stroke="none">
<path d="M1565 5876 c-16 -8 -42 -27 -57 -43 -26 -26 -91 -277 -733 -2821
-478 -1890 -703 -2800 -699 -2817 3 -14 18 -34 31 -45 25 -20 47 -20 2245 -20
1668 0 2225 3 2241 12 32 17 46 39 46 73 0 17 -166 694 -370 1505 -203 811
-516 2061 -695 2778 -353 1411 -334 1346 -411 1378 -47 20 -1553 20 -1598 0z
m1742 -1766 c195 -778 364 -1453 375 -1500 11 -47 134 -543 273 -1103 l252
-1017 -1849 0 c-1757 0 -1849 1 -1844 18 9 33 1266 5013 1266 5017 0 3 264 4
586 3 l587 -3 354 -1415z"/>
</g>
</svg>
